<svg id="Calque_1" data-name="Calque 1" xmlns="http://www.w3.org/2000/svg" viewBox="0 0 512 489.82"><title>003-favourite</title><path d="M510.64,196c-3.88-11.93-15.43-20.13-31.68-22.5L346.45,154.26,287.18,34.18C279.91,19.45,268.55,11,256,11s-23.91,8.45-31.18,23.19L165.56,154.26,33,173.52C16.78,175.88,5.23,184.08,1.36,196S2,221.37,13.77,232.83l95.89,93.46L87,458.28c-2.89,16.88,2,27,6.69,32.51a28.68,28.68,0,0,0,22.39,10c6.76,0,14-2,21.38-5.88L256,432.63l118.53,62.31c7.42,3.9,14.61,5.88,21.38,5.88h0a28.69,28.69,0,0,0,22.39-10c4.64-5.51,9.58-15.63,6.68-32.51l-22.64-132,95.89-93.46C510,221.37,514.52,207.95,510.64,196Z" transform="translate(0 -11)"/></svg>