<?xml version="1.0" encoding="utf-8"?>
<!-- Generator: Adobe Illustrator 21.0.0, SVG Export Plug-In . SVG Version: 6.00 Build 0)  -->
<svg version="1.1" id="Layer_1" xmlns="http://www.w3.org/2000/svg" xmlns:xlink="http://www.w3.org/1999/xlink" x="0px" y="0px"
	 viewBox="0 0 491.8 491.8" style="enable-background:new 0 0 491.8 491.8;" xml:space="preserve">
<style type="text/css">
	.st0{fill:#FFFFFF;}
</style>
<g>
	<g>
		<path class="st0" d="M485.8,221.2L301.5,36.9c-5.9-5.8-14.6-7.6-22.3-4.4c-7.7,3.2-12.6,10.7-12.6,18.9v82
			c-117.8,4.8-220.7,84.4-253.6,198.4C-1.3,381.2-0.2,421.4,0.2,436.5l0.1,4c0,9.2,6.2,17.3,15,19.7c1.8,0.5,3.6,0.7,5.4,0.7
			c7.1,0,13.8-3.7,17.6-10C119.5,314.6,227,310.7,266.5,314.6V420c0,8.3,5,15.8,12.6,18.9c7.7,3.2,16.5,1.4,22.3-4.4l184.3-184.3
			C493.8,242.1,493.8,229.2,485.8,221.2z"/>
	</g>
</g>
</svg>
