<?xml version="1.0" encoding="utf-8"?>
<!-- Generator: Adobe Illustrator 21.0.0, SVG Export Plug-In . SVG Version: 6.00 Build 0)  -->
<svg version="1.1" id="Capa_1" xmlns="http://www.w3.org/2000/svg" xmlns:xlink="http://www.w3.org/1999/xlink" x="0px" y="0px"
	 viewBox="0 0 479.6 479.6" style="enable-background:new 0 0 479.6 479.6;" xml:space="preserve">
<style type="text/css">
	.st0{fill:none;stroke:#020202;stroke-width:26;stroke-miterlimit:10;}
	.st1{stroke:#000000;stroke-width:9;stroke-miterlimit:10;}
</style>
<circle class="st0" cx="239.6" cy="239.8" r="227.2"/>
<path class="st1" d="M352.1,215.4h-83c-2.7,0-4.9-2.2-4.9-4.9v-83c0-13.5-10.9-24.4-24.4-24.4s-24.4,10.9-24.4,24.4v83
	c0,2.7-2.2,4.9-4.9,4.9h-83c-13.5,0-24.4,10.9-24.4,24.4s10.9,24.4,24.4,24.4h83c2.7,0,4.9,2.2,4.9,4.9v83
	c0,13.5,10.9,24.4,24.4,24.4s24.4-10.9,24.4-24.4v-83c0-2.7,2.2-4.9,4.9-4.9h83c13.5,0,24.4-10.9,24.4-24.4S365.6,215.4,352.1,215.4
	z"/>
</svg>
