<?xml version="1.0" encoding="utf-8"?>
<!-- Generator: Adobe Illustrator 21.0.0, SVG Export Plug-In . SVG Version: 6.00 Build 0)  -->
<svg version="1.1" id="Calque_1" xmlns="http://www.w3.org/2000/svg" xmlns:xlink="http://www.w3.org/1999/xlink" x="0px" y="0px"
	 viewBox="0 0 426.7 426.7" style="enable-background:new 0 0 426.7 426.7;" xml:space="preserve">
<style type="text/css">
	.st0{fill:none;stroke:#203864;stroke-width:35;stroke-miterlimit:10;}
	.st1{fill:none;stroke:#020202;stroke-width:23;stroke-miterlimit:10;}
	.st2{fill:#203864;}
</style>
<path class="st0" d="M348.8,408.8h-271c-33,0-60-27-60-60v-271c0-33,27-60,60-60h271c33,0,60,27,60,60v271
	C408.8,381.8,381.8,408.8,348.8,408.8z"/>
<circle class="st1" cx="-64" cy="191" r="0"/>
<g>
	<path class="st2" d="M213.3,373L213.3,373c-13.2,0-24-10.8-24-24V81c0-13.2,10.8-24,24-24h0c13.2,0,24,10.8,24,24v268
		C237.3,362.2,226.5,373,213.3,373z"/>
	<path class="st2" d="M55.3,213.3L55.3,213.3c0-13.2,10.8-24,24-24h268c13.2,0,24,10.8,24,24v0c0,13.2-10.8,24-24,24h-268
		C66.1,237.3,55.3,226.5,55.3,213.3z"/>
</g>
</svg>
