<?xml version="1.0" encoding="utf-8"?>
<!-- Generator: Adobe Illustrator 21.0.0, SVG Export Plug-In . SVG Version: 6.00 Build 0)  -->
<svg version="1.1" id="Calque_2" xmlns="http://www.w3.org/2000/svg" xmlns:xlink="http://www.w3.org/1999/xlink" x="0px" y="0px"
	 viewBox="0 0 1280 1024" style="enable-background:new 0 0 1280 1024;" xml:space="preserve">
<style type="text/css">
	.st0{fill:#FFFFFF;}
	.st1{fill:#FFFFFF;stroke:#020202;stroke-width:33;stroke-miterlimit:10;}
</style>
<g>
	<circle class="st0" cx="1105.1" cy="324.9" r="64.1"/>
	<path class="st0" d="M639.5,262.2c-88.9,0-170,36.6-227.5,94.2c-58.8,58.8-94.2,138.6-94.2,227.5s36.6,170,94.2,227.5
		c58.8,58.8,138.6,94.2,227.5,94.2s170-36.6,227.5-94.2c58.8-58.8,94.2-138.6,94.2-227.5s-36.6-170-94.2-227.5
		C809.5,298.8,728.5,262.2,639.5,262.2z"/>
	<path class="st0" d="M1174.4,173.2H922c-19.6,0-35.3-15.7-35.3-35.3V100c0-14.4-5.2-27.5-14.4-36.6c-9.2-9.2-22.2-14.4-36.6-14.4
		h-391c-14.4,0-27.5,5.2-36.6,14.4s-14.4,22.2-14.4,36.6v37.9c0,19.6-15.7,35.3-35.3,35.3H106c-23.5,0-44.5,9.2-60.2,24.8
		S21,234.7,21,258.2v651.2c0,23.5,9.2,44.5,24.8,60.2c15.7,15.7,36.6,24.8,60.2,24.8h1067.1c23.5,0,44.5-9.2,60.2-24.8
		c15.7-15.7,24.8-36.6,24.8-60.2h1.3V258.2c0-23.5-9.2-44.5-24.8-60.2C1218.9,182.4,1197.9,173.2,1174.4,173.2z M867.1,811.4
		c-57.5,57.5-138.6,94.2-227.5,94.2S470.8,870.2,412,811.4c-57.5-57.5-94.2-138.6-94.2-227.5s35.3-168.7,94.2-227.5
		c57.5-57.5,138.6-94.2,227.5-94.2s170,36.6,227.5,94.2c57.5,57.5,94.2,138.6,94.2,227.5S925.9,752.5,867.1,811.4z M1105.1,389
		c-35.4,0-64.1-28.7-64.1-64.1s28.7-64.1,64.1-64.1c35.4,0,64.1,28.7,64.1,64.1S1140.5,389,1105.1,389z"/>
</g>
<circle class="st1" cx="639.9" cy="583.8" r="304.2"/>
</svg>
