<?xml version="1.0" encoding="utf-8"?>
<!-- Generator: Adobe Illustrator 21.0.0, SVG Export Plug-In . SVG Version: 6.00 Build 0)  -->
<svg version="1.1" id="Calque_1" xmlns="http://www.w3.org/2000/svg" xmlns:xlink="http://www.w3.org/1999/xlink" x="0px" y="0px"
	 viewBox="0 0 423 423" style="enable-background:new 0 0 423 423;" xml:space="preserve">
<style type="text/css">
	.st0{fill:url(#SVGID_1_);}
	.st1{fill:#FFFFFF;}
	.st2{fill:#7F7F7F;}
	.st3{fill:#54596E;}
</style>
<linearGradient id="SVGID_1_" gradientUnits="userSpaceOnUse" x1="23.1843" y1="183.819" x2="328.7941" y2="183.819">
	<stop  offset="0" style="stop-color:#666666"/>
	<stop  offset="0.446" style="stop-color:#646464"/>
	<stop  offset="0.6235" style="stop-color:#5D5D5D"/>
	<stop  offset="0.7531" style="stop-color:#515151"/>
	<stop  offset="0.8595" style="stop-color:#3F3F3F"/>
	<stop  offset="0.9506" style="stop-color:#292929"/>
	<stop  offset="1" style="stop-color:#1A1A1A"/>
</linearGradient>
<path class="st0" d="M318,127.6c-10-5.2-22.5-1.7-27.9,7.9l-15.3,26.8l-85.5-42.1l34.5-61c6.3-11.2,2-25.3-9.6-31.4
	c-11.7-6.1-26.2-2-32.6,9.3l-27.9,49.4l-1.6,2.9l-37.8,66.8l-33.6-28.2c-15-14.6-39.5-14.8-54.7-0.3c-3.7,3.5-3.7,9.2-0.1,12.8
	l18.9,18.4c26.9,26.2,32.3,36.2,27.1,68.7L64,273l132.6,69.6l16.6-29.3c14.7-1.1,28.6-9,36.1-22.4l70.4-124.6l6.6-11.6
	C331.7,144.9,328,132.9,318,127.6"/>
<path class="st1" d="M318,127.6l3.9-6.8c-4.3-2.3-9.1-3.4-13.7-3.4c-10.1,0-20,5.2-25.2,14.4l0,0L271.5,152l-71.2-35l30.5-54
	c2.6-4.7,3.9-9.8,3.9-14.8c0-10.9-6.1-21.6-16.7-27.2l0,0c-4.8-2.5-10.1-3.8-15.3-3.8c-11.4,0-22.4,5.8-28.2,16.1l-27.9,49.4v0
	l-1.6,2.9L112,144l-26-21.8l-5.3,5.9l5.7-5.5c-9.1-8.9-21.2-13.4-33.2-13.4c-11.9,0-23.8,4.4-32.9,13c-3.4,3.3-5.2,7.6-5.2,11.9
	c0,4.2,1.7,8.6,5,11.8L39,164.4c10.4,10.1,17.2,17.5,21.1,24c3.9,6.5,5.4,12.1,5.5,20.6c0,4.8-0.6,10.5-1.7,17.4l8,1.2l-8-1.3
	L56,271.7c-0.6,3.3,1.1,6.5,4.1,8.1l132.6,69.6c3.9,2.1,8.8,0.7,10.9-3.1l16.6-29.3l-7.1-3.7l0.6,7.8c17.3-1.2,33.7-10.7,42.6-26.5
	l70.4-124.6l6.6-11.6c2.4-4.2,3.5-8.7,3.5-13.2c0-9.8-5.4-19.3-15-24.3l-7.7,13.7c4.2,2.2,6.5,6.3,6.5,10.6c0,2-0.5,3.9-1.5,5.8
	l-6.6,11.6l-70.4,124.6c-6.2,11-17.5,17.5-29.6,18.4c-2.7,0.2-5.2,1.7-6.5,4L193.3,332L72.9,268.8l7-39.9l0-0.1
	c1.2-7.4,1.9-13.8,1.9-19.7c0.1-10.5-2.4-19.8-7.7-28.5c-5.3-8.7-12.9-16.8-23.5-27.1l-18.9-18.4l-0.4-0.9l0.4-0.9v0
	c6-5.7,13.7-8.5,21.5-8.5c7.9,0,15.8,2.9,21.8,8.7l0.4,0.4l33.6,28.2c1.9,1.5,4.3,2.2,6.7,1.8c2.4-0.4,4.5-1.9,5.7-3.9l37.8-66.8
	l1.6-2.9v0l27.9-49.4c2.9-5.1,8.4-8,14-8c2.6,0,5.2,0.6,7.6,1.9v0c5.3,2.8,8.3,8.1,8.3,13.5c0,2.5-0.6,5-2,7.3l-34.5,61
	c-1,1.9-1.3,4-0.6,6c0.6,2,2.1,3.7,4,4.6l85.5,42.1c3.9,1.9,8.6,0.5,10.7-3.2l15.3-26.8l0,0c2.3-4,6.6-6.3,11-6.3c2,0,4,0.5,6,1.5
	L318,127.6z"/>
<path class="st2" d="M218.4,165.7l67.3-119.1c6.4-11.2,2-25.3-9.6-31.4c-11.7-6.1-26.2-2-32.6,9.3l-67.3,119.1"/>
<path class="st1" d="M225.4,169.4l67.3-119.1h0c2.6-4.7,3.9-9.8,3.9-14.8c0-10.9-6.1-21.6-16.7-27.2c-4.9-2.5-10.1-3.8-15.3-3.8
	c-11.4,0-22.4,5.8-28.2,16.1l-67.3,119.1c-2.1,3.8-0.7,8.5,3.2,10.5c3.9,2.1,8.8,0.7,10.9-3.1l67.3-119.1c2.9-5.1,8.4-8,14-8
	c2.6,0,5.2,0.6,7.6,1.9c5.3,2.8,8.3,8.1,8.3,13.5c0,2.5-0.6,5-1.9,7.3l0,0L211.3,162c-2.1,3.8-0.7,8.5,3.2,10.5
	C218.4,174.6,223.3,173.2,225.4,169.4z"/>
<path class="st2" d="M205.2,345.5l-39.4,69.7L15.1,336.1l39.4-69.7L205.2,345.5z"/>
<path class="st1" d="M205.2,345.5l-7.1-3.7l-35.5,62.9L26,333L57.7,277l143.6,75.4L205.2,345.5l-7.1-3.7L205.2,345.5l3.9-6.8
	L58.3,259.6c-3.9-2.1-8.8-0.7-10.9,3.1L8,332.4c-1,1.8-1.3,4-0.7,5.9c0.6,2,2,3.6,3.9,4.6l150.7,79.1c1.9,1,4.1,1.2,6.1,0.6
	c2-0.6,3.8-1.9,4.8-3.7l39.4-69.7c1-1.8,1.3-4,0.7-5.9c-0.6-2-2-3.7-3.9-4.6L205.2,345.5z"/>
<path class="st3" d="M84.1,316.5c-2.1-7-9.8-11-17-8.9c-7.3,2.1-11.4,9.4-9.3,16.4c2.1,7,9.8,11,17,8.9
	C82.1,330.9,86.2,323.5,84.1,316.5z"/>
<path class="st2" d="M395.9,160.3c-8.7-7-21.7-5.9-29,2.6l-20.4,23.5L271,129l46.1-53.4c8.5-9.8,7.1-24.4-3.1-32.6
	c-10.2-8.2-25.3-6.8-33.8,3l-37.3,43.2l-2.2,2.5l-50.5,58.5l-27.3-33.9c-11.8-17.2-35.8-21.9-53.6-10.5c-4.3,2.7-5.5,8.4-2.6,12.5
	l14.8,21.5c21.1,30.7,24.4,41.6,12.8,72.4l-16.9,43l116.1,93.1l22.2-25.7c14.6,1.7,29.8-3.5,40-15.3l94.2-109.1l8.8-10.2
	C405.8,179.8,404.6,167.3,395.9,160.3"/>
<path class="st1" d="M395.9,160.3l5.2-6c-5.3-4.3-11.9-6.4-18.3-6.4c-8.2,0-16.4,3.4-22,10l0,0l-15.4,17.7l-62.8-47.7l40.8-47.3
	c5-5.8,7.4-12.8,7.4-19.8c0-8.8-4-17.7-11.6-23.8v0c-6-4.8-13.3-7.2-20.5-7.1c-9.2,0-18.4,3.8-24.7,11.2l0,0l-37.3,43.2l-2.2,2.5h0
	l-44.1,51l-21.1-26.3l-6.4,4.8l6.7-4.3c-9-13.1-23.9-20.2-39-20.2c-8.9,0-17.9,2.4-25.8,7.5c-5,3.2-7.8,8.6-7.8,14
	c0,3.2,0.9,6.4,2.9,9.3l14.8,21.5c6.5,9.5,11.1,16.8,14,23c2.9,6.2,4,11.2,4.1,16.7c0,6.6-1.9,14.5-6.1,25.7l7.6,2.7l-7.5-2.8
	l-16.9,43c-1.2,3.1-0.3,6.6,2.4,8.7l116.1,93.1c1.6,1.3,3.8,1.9,5.9,1.8c2.1-0.2,4.1-1.2,5.5-2.8l22.2-25.7l-6.2-5l-1,7.7
	c2.1,0.2,4.3,0.4,6.4,0.4c15.1,0,30.3-6.2,40.7-18.4l94.2-109.1l8.8-10.2c4.4-5.1,6.6-11.4,6.6-17.7c0-7.9-3.5-15.8-10.3-21.2
	L395.9,160.3l-5.2,6c3,2.4,4.5,5.8,4.5,9.3c0,2.7-0.9,5.4-2.9,7.7h0l-8.8,10.2l-94.2,109.1c-7.3,8.5-17.7,12.8-28.3,12.8
	c-1.5,0-3-0.1-4.5-0.3c-2.7-0.3-5.4,0.7-7.2,2.7l-17,19.7l-105.5-84.6l14.9-37.8l0-0.1c4.5-11.9,7.1-21.6,7.1-31.1
	c0-7.9-1.9-15.4-5.5-23c-3.5-7.7-8.6-15.6-15.3-25.3l-14.8-21.5l-0.2-0.7l0.6-1c5.2-3.3,11.1-4.9,16.9-4.9c10,0,19.7,4.6,25.6,13.2
	l0.4,0.5l27.3,33.9c1.5,1.9,3.8,3,6.2,3c2.4,0,4.8-1,6.3-2.8l50.5-58.5l0,0l2.2-2.5l0,0L286.4,51c3.2-3.7,7.7-5.5,12.3-5.5
	c3.6,0,7.2,1.2,10.2,3.6h0c3.8,3.1,5.7,7.4,5.8,11.8c0,3.5-1.2,6.9-3.7,9.8l-46.1,53.4c-1.4,1.6-2,3.7-1.8,5.8c0.2,2.1,1.3,4,3,5.3
	l75.4,57.3c3.4,2.6,8.4,2.1,11.2-1.1l20.4-23.5l0,0c2.5-2.9,6-4.3,9.6-4.4c2.8,0,5.6,0.9,8,2.8v0L395.9,160.3z"/>
<path class="st2" d="M290.4,179l90-104.3c8.5-9.8,7.1-24.4-3.1-32.6c-10.2-8.2-25.3-6.8-33.8,3l-90,104.3"/>
<path class="st1" d="M296.6,184l90-104.3c5-5.8,7.4-12.8,7.4-19.8c0-8.8-4-17.7-11.6-23.8v0c-6-4.8-13.3-7.2-20.5-7.2
	c-9.2,0-18.4,3.8-24.7,11.1v0l-90,104.3c-2.8,3.3-2.4,8.2,1,10.9s8.5,2.3,11.4-1l90-104.3l0,0c3.2-3.7,7.7-5.5,12.3-5.5
	c3.6,0,7.2,1.2,10.2,3.6c3.8,3.1,5.7,7.4,5.8,11.8c0,3.5-1.2,6.9-3.7,9.8l-90,104.3c-2.9,3.3-2.4,8.2,1,11
	C288.7,187.7,293.8,187.3,296.6,184z"/>
<path class="st2" d="M328.9,206.7l75.1-87c7-8.1,4.4-21.3-5.8-29.5C388,82,374.1,81.9,367.1,90l-75.1,87"/>
<path class="st1" d="M335.1,211.6l75.1-87h0c4-4.6,5.8-10.3,5.8-15.9c0-9.1-4.6-18.1-12.6-24.6c-6.5-5.2-14.3-7.9-22-8
	c-7.6,0-15.3,2.8-20.5,8.9l-75.1,87c-2.8,3.3-2.4,8.2,1,10.9c3.4,2.7,8.5,2.3,11.4-1l75.1-87c1.8-2,4.5-3.2,8.1-3.3
	c3.6,0,8,1.4,11.7,4.4v0c4.6,3.7,6.8,8.7,6.8,12.6c0,2.4-0.7,4.4-2.1,5.9l-75.1,87c-2.8,3.3-2.4,8.2,1,10.9
	C327.2,215.4,332.2,214.9,335.1,211.6z"/>
<path class="st2" d="M241.3,352.9l-52.7,61L56.7,308.2l52.7-61L241.3,352.9z"/>
<path class="st1" d="M241.3,352.9l-6.2-5L187.5,403L68,307.2l42.4-49.1l125.7,100.8L241.3,352.9l-6.2-5L241.3,352.9l5.2-6
	L114.5,241.2c-3.4-2.7-8.5-2.3-11.4,1l-52.7,61c-1.4,1.6-2,3.6-1.8,5.7c0.2,2,1.2,4,2.9,5.3l131.9,105.8c3.4,2.7,8.5,2.3,11.4-1
	l52.7-61c1.4-1.6,2-3.6,1.8-5.7c-0.2-2-1.2-4-2.9-5.3L241.3,352.9z"/>
<path class="st3" d="M128.3,301.9c-0.7-7.3-7.4-12.6-14.9-12c-7.6,0.7-13.1,7.1-12.4,14.4c0.7,7.3,7.4,12.6,14.9,12
	C123.5,315.6,129,309.1,128.3,301.9z"/>
<g>
	<path class="st2" d="M106.5,73.6L60.3,59.2c-4-1.2-8.3,0.8-9.6,4.6c-1.3,3.8,0.9,7.9,4.9,9.1l46.2,14.4c4,1.2,8.3-0.8,9.6-4.6
		C112.7,79,110.5,74.9,106.5,73.6"/>
	<path class="st2" d="M121.3,52.6l-20.8-30.2c-2.3-3.3-7-4.3-10.5-2.1c-3.5,2.2-4.5,6.7-2.2,10l20.8,30.2c2.3,3.3,7,4.3,10.5,2.1
		C122.6,60.4,123.6,55.9,121.3,52.6"/>
	<path class="st2" d="M149.7,58.3l9.9-45c0.9-3.9-1.8-7.7-5.9-8.5c-4.1-0.8-8.1,1.7-9,5.6l-9.9,45c-0.9,3.9,1.8,7.7,5.9,8.5
		C144.9,64.7,148.9,62.2,149.7,58.3"/>
</g>
</svg>
