<?xml version="1.0" encoding="utf-8"?>
<!-- Generator: Adobe Illustrator 21.0.0, SVG Export Plug-In . SVG Version: 6.00 Build 0)  -->
<svg version="1.1" id="Capa_1" xmlns="http://www.w3.org/2000/svg" xmlns:xlink="http://www.w3.org/1999/xlink" x="0px" y="0px"
	 viewBox="0 0 479.6 479.6" style="enable-background:new 0 0 479.6 479.6;" xml:space="preserve">
<style type="text/css">
	.st0{fill:none;stroke:#020202;stroke-width:26;stroke-miterlimit:10;}
</style>
<circle class="st0" cx="239.6" cy="239.8" r="227.2"/>
<g>
	<g>
		<path d="M393.9,289.9c-0.3-1.7-0.7-3.4-1.2-5.1c-5.4-15-20.7-23.9-36.3-21.2c-5.2,0.8-10-2.7-10.8-7.9l-7.9-50.4
			c-6.5-42.7-37.4-77.6-78.9-89.4c-3.8-23.1-25.5-38.8-48.7-35c-22.8,3.7-38.4,25.1-35.1,47.9c-35.8,22.6-54.7,64.4-48,106.2
			l8.5,53.7c0.7,5.2-2.7,10-7.9,10.8c-15.7,2.2-27.5,15.5-28.1,31.3c-0.2,17.6,14,32,31.6,32.2c0.1,0,0.2,0,0.3,0
			c1.7,0,3.3-0.1,5-0.4l32.7-5.2c11.4,20.3,37.1,27.6,57.5,16.2c10.7-6,18.3-16.4,20.8-28.5l120.2-18.9
			C384.7,323.7,396.6,307.3,393.9,289.9z M205.6,358c-4.5,0-8.9-1.4-12.5-4.1l29.8-4.7C218.9,354.8,212.5,358,205.6,358z
			 M234.3,112.4c-4-0.1-7.9,0-11.9,0.3c-4.2,0.4-8.3,1.1-12.4,1.9c-0.9,0.2-1.7,0.4-2.6,0.6c-3.4,0.8-6.6,1.7-9.8,2.8
			c-0.3,0.1-0.7,0.1-1,0.2c2.2-8,9-14,17.2-15.3c1.1-0.2,2.2-0.2,3.4-0.2c7.1,0.1,13.8,3.6,17.7,9.6L234.3,112.4L234.3,112.4z"/>
	</g>
</g>
</svg>
