<svg viewBox="0 0 128 128" xmlns="http://www.w3.org/2000/svg"><g><path d="m12.5 25.25a1.75 1.75 0 0 0 -1.75 1.75v15.373a1.75 1.75 0 0 0 3.5 0v-15.373a1.75 1.75 0 0 0 -1.75-1.75z"/><path d="m121.29 40.448c-5.31-1.583-8.693-4.216-9.784-7.615a9.387 9.387 0 0 1 1.5-8.26 1.75 1.75 0 0 0 -1.948-2.729c-3.767 1.286-9.654 3.287-13.81 2.225v-17.569a1.749 1.749 0 0 0 -1.748-1.75h-89a1.75 1.75 0 0 0 -1.75 1.75v115a1.75 1.75 0 0 0 1.75 1.75h89a1.749 1.749 0 0 0 1.75-1.75v-59.543c6.334-.626 15.214 4.438 17.09 6.16a1.75 1.75 0 0 0 2.529-2.407c-4.789-5.763-6.745-11.349-5.366-15.326 1.116-3.219 4.363-5.421 9.651-6.547a1.75 1.75 0 0 0 .136-3.389zm-113.04 79.302v-111.5h85.5v13.523c-1.218-1.673-1.85-4.211-1.875-7.573a1.75 1.75 0 0 0 -3.185-.988c-3.395 4.859-7.73 10.4-11.3 10.007-2.39-.258-4.86-3.289-7.151-8.769a1.75 1.75 0 0 0 -3.292.178c-1.713 5.782-3.906 9.216-6.708 10.5-3.328 1.524-7.573.2-13.781-2.6a1.75 1.75 0 0 0 -2.264 2.418c2.48 4.66 3.03 8.374 1.636 11.038-2.568 4.907-11.357 5.944-15.58 6.442a1.75 1.75 0 0 0 -.8 3.174c3.981 2.775 7.61 5.6 8.282 9.65.583 3.511-1 7.765-4.843 13a1.749 1.749 0 0 0 2.079 2.652c5.875-2.426 10.688-2.529 14.306-.309 5.963 3.66 7.263 12.464 7.546 16.081a1.75 1.75 0 0 0 1.384 1.576 1.77 1.77 0 0 0 .361.037 1.75 1.75 0 0 0 1.541-.922c4.552-8.473 9.163-13.2 13.7-14.055 4.8-.9 9.1 2.753 12.234 5.423.8.684 1.556 1.328 2.249 1.837a1.75 1.75 0 0 0 2.762-1.7c-.967-5.726-1.234-12.963 2.691-15.716v56.59zm99.95-70.513c-1.223 3.531-.658 7.7 1.577 12.133-4.363-2.024-9.947-3.7-14.584-2.6-.048.008-.093.022-.14.034a10.366 10.366 0 0 0 -2.431.925c-4.3 2.336-6.165 7.464-5.568 15.275-3.417-2.836-8.173-6.209-13.882-5.128-4.777.9-9.252 4.668-13.6 11.485-1.029-4.686-3.327-10.6-8.458-13.746a14.613 14.613 0 0 0 -7.8-2.116 21.251 21.251 0 0 0 -4.839.594c2.392-4.251 3.283-8.014 2.718-11.415-.662-3.985-3.139-6.847-6.251-9.368 5.035-.871 11.4-2.752 13.993-7.7 1.469-2.806 1.528-6.209.184-10.15 4.462 1.721 8.736 2.613 12.582.85 2.953-1.353 5.319-4.188 7.174-8.618 2.421 4.377 5.105 6.679 8.143 7 4.248.455 8.179-3.117 11.83-7.784a11.056 11.056 0 0 0 4.212 7.052 9.376 9.376 0 0 0 1.755.973l.024.01c4.017 1.7 9.118.751 13.358-.5a12.375 12.375 0 0 0 -.02 7.452c.792 2.466 2.738 5.609 7.4 8.03-4.602 2.023-6.561 4.951-7.377 7.312z"/><path d="m78.333 93.214h-54.666a1.75 1.75 0 0 0 0 3.5h54.666a1.75 1.75 0 0 0 0-3.5z"/><path d="m78.333 102.861h-54.666a1.75 1.75 0 0 0 0 3.5h54.666a1.75 1.75 0 0 0 0-3.5z"/></g></svg>