<?xml version="1.0" encoding="iso-8859-1"?>
<!-- Generator: Adobe Illustrator 16.0.0, SVG Export Plug-In . SVG Version: 6.00 Build 0)  -->
<!DOCTYPE svg PUBLIC "-//W3C//DTD SVG 1.1//EN" "http://www.w3.org/Graphics/SVG/1.1/DTD/svg11.dtd">
<svg version="1.1" id="Capa_1" xmlns="http://www.w3.org/2000/svg" xmlns:xlink="http://www.w3.org/1999/xlink" x="0px" y="0px"
	  viewBox="0 0 46.308 46.308" style="enable-background:new 0 0 46.308 46.308;"
	 xml:space="preserve">
<g>
	<g>
		<path d="M46.308,25.769c0-2.554-1.716-4.793-4.301-5.95c1.03-1.204,1.603-2.629,1.603-4.108c0-4.323-4.832-7.818-10.603-7.481
			c-0.946-3.599-4.696-6.229-9.246-6.229c-2.91,0-5.659,1.144-7.44,3.043c-1.111-0.318-2.263-0.479-3.44-0.479
			c-5.987,0-10.857,4.153-10.857,9.257c0,1.181,0.266,2.347,0.779,3.437C1.062,18.525,0,20.459,0,22.516
			c0,2.353,1.382,4.536,3.582,5.753c0.344,1.473,0.98,2.885,1.897,4.206c0.457,0.658,0.711,1.427,0.736,2.222l0.224,7.144
			c0.026,0.885,0.522,1.705,1.294,2.14c0.38,0.215,0.812,0.327,1.248,0.327c0.438,0,0.87-0.114,1.25-0.329l6.241-3.523
			c0.774-0.438,1.676-0.614,2.563-0.5c1.411,0.183,2.869,0.248,4.287,0.176c1.965,1.13,4.4,1.748,6.915,1.748
			c6.289,0,11.213-3.632,11.213-8.268c0-0.541-0.067-1.074-0.203-1.594C44.267,30.979,46.308,28.554,46.308,25.769z M38.98,29.483
			c-0.5,0.069-0.934,0.385-1.15,0.842s-0.19,0.992,0.072,1.425c0.364,0.598,0.549,1.224,0.549,1.86c0,2.854-3.762,5.268-8.213,5.268
			c-2.138,0-4.172-0.546-5.732-1.538c-0.268-0.17-0.582-0.251-0.9-0.231c-5.212,0.336-9.02-1.291-10.313-2.44
			c-0.56-0.497-1.338,0.294-0.832,0.845c0.411,0.444,1.438,1.23,3.141,2.051c-0.807,0.359,0.302-0.231-6.186,3.43l-0.201-6.391
			c-0.043-1.376-0.482-2.703-1.27-3.838c-0.82-1.183-1.344-2.447-1.555-3.756c-0.083-0.511-0.422-0.943-0.899-1.145
			c-1.536-0.646-2.49-1.928-2.49-3.349c0-1.405,0.94-2.683,2.454-3.334c0.418-0.18,0.732-0.54,0.854-0.979
			c0.121-0.439,0.036-0.909-0.231-1.278c-0.698-0.965-1.052-2.009-1.052-3.103c0-3.45,3.525-6.257,7.857-6.257
			c3.188,0,4.145,1.558,5.174,0.089c1.144-1.636,3.33-2.653,5.706-2.653c3.509,0,6.413,2.208,6.476,4.922
			c0.01,0.438,0.209,0.849,0.549,1.126c0.339,0.277,0.783,0.393,1.213,0.316c4.46-0.796,8.609,1.532,8.609,4.345
			c0,1.335-0.938,2.605-2.576,3.484c-0.586,0.314-0.895,0.976-0.76,1.625c0.135,0.65,0.68,1.135,1.342,1.191
			c2.631,0.223,4.693,1.874,4.693,3.758C43.308,27.549,41.447,29.146,38.98,29.483z"/>
		<path d="M6.976,24.866c0.285,0.474,0.9,0.625,1.372,0.343c1.532-0.919-1.287-2.394,0.999-3.212
			c0.519-0.18,0.797-0.744,0.621-1.265C9.345,18.888,4.866,21.348,6.976,24.866z"/>
		<path d="M8.714,12.638c-0.805,1.135-0.825,2.904-0.697,4.283c0.062,0.725,0.747,1.258,1.483,1.118
			c2.14-0.409-0.167-2.995,1.376-4.947c0.308-0.547,1.645-1.579,3.211-1.892c0.417-0.054,0.71-0.436,0.656-0.852
			C14.543,8.804,10.048,10.307,8.714,12.638z"/>
		<path d="M20.649,8.443c-0.4,0.296-0.577,0.514-0.911,0.876c-0.522,0.563,0.161,1.553,0.986,0.925
			c3.692-2.787,6.082,1.528,7.154-0.779C28.982,7.092,22.833,6.521,20.649,8.443z"/>
	</g>
</g>
<g>
</g>
<g>
</g>
<g>
</g>
<g>
</g>
<g>
</g>
<g>
</g>
<g>
</g>
<g>
</g>
<g>
</g>
<g>
</g>
<g>
</g>
<g>
</g>
<g>
</g>
<g>
</g>
<g>
</g>
</svg>
