<?xml version="1.0" encoding="utf-8"?>
<!-- Generator: Adobe Illustrator 21.0.0, SVG Export Plug-In . SVG Version: 6.00 Build 0)  -->
<svg version="1.1" id="Capa_1" xmlns="http://www.w3.org/2000/svg" xmlns:xlink="http://www.w3.org/1999/xlink" x="0px" y="0px"
	 viewBox="0 0 512 512" style="enable-background:new 0 0 512 512;" xml:space="preserve">
<g>
	<path d="M408.6,279.3C378.5,209.5,294.3,88.8,334.2,7.4c2-4.1-1.9-8.7-6.2-7.1c-34.8,12.3-127.5,56-98.7,165.9
		c0,0-26.7-31.6-50.4-41.5c-3.5-1.5-7.3,1.3-7,5.1c5,66.4-42.2,102-69.5,158.1c-24.5,50.3-14,99.4,11.1,143.1
		c18.7,32.5,46.7,57.3,79.1,72.1c-2-1.9-4-3.9-5.9-6c-18.4-20.6-27.1-48.5-23.9-76.5c3.2-27.9,23.1-54,42.3-79.2
		c23-30.2,44.8-58.8,34-83.7c-2.6-5.9-1.1-12.7,3.5-17.1c4.7-4.4,11.6-5.4,17.3-2.4c1,0.5,24.5,12.7,42.1,40.8
		c11.8,18.8,22.7,47.7,18.7,87.6c0.3-0.1,0.6-0.1,0.9-0.1c6.5-0.9,12.9,2.6,15.7,8.5c17.8,37.4,16.3,82.1-3.8,113.9
		c-5.9,9.3-13,17-21.3,23.2C410.7,481.6,446.8,367.6,408.6,279.3L408.6,279.3z"/>
	<path d="M270.8,287c-5.7,25.9-24.3,50.3-41.5,72.8c-16.7,21.9-34,44.6-36.2,64.2c-2.2,19.4,3.7,38.6,16.4,52.8
		c12.5,14,29.9,21.7,49,21.7c27.3,0,42-14.1,49.5-26c9.9-15.6,13.4-36.4,10.4-56.9c-7.5,5-15.3,7.4-20.7,8
		c-5.2,0.6-10.3-1.5-13.6-5.6c-3.3-4.1-4.2-9.5-2.5-14.5C301.7,344.8,287,307.8,270.8,287z"/>
</g>
</svg>
