<?xml version="1.0" encoding="utf-8"?>
<!-- Generator: Adobe Illustrator 21.0.0, SVG Export Plug-In . SVG Version: 6.00 Build 0)  -->
<svg version="1.1" id="Calque_1" xmlns="http://www.w3.org/2000/svg" xmlns:xlink="http://www.w3.org/1999/xlink" x="0px" y="0px"
	 viewBox="0 0 512 512" style="enable-background:new 0 0 512 512;" xml:space="preserve">
<path d="M442.2,244.5c-24.4,20.1-55.7,32.3-89.8,32.3c-11.8,0-23.3-1.5-34.2-4.2c19.6,29.8,31,65.5,31,103.8v56.2
	c0,21-7.7,40.3-20.4,55.2h128c30.4,0,55.2-24.7,55.2-55.2v-56.2C512,321.7,484.3,273.3,442.2,244.5z"/>
<path d="M159.6,246.8c61.4,0,111.4-50,111.4-111.4C271,74,221,24,159.6,24S48.2,74,48.2,135.4C48.2,196.8,98.2,246.8,159.6,246.8z"
	/>
<path d="M352.4,246.8c61.4,0,111.4-50,111.4-111.4C463.8,74,413.8,24,352.4,24c-29.7,0-56.7,11.7-76.7,30.7
	c16,22.9,25.3,50.7,25.3,80.7c0,30-9.4,57.8-25.3,80.7C295.7,235.1,322.7,246.8,352.4,246.8z"/>
<path d="M249.4,244.5c-24.4,20.1-55.7,32.3-89.8,32.3s-65.4-12.1-89.8-32.3C27.7,273.3,0,321.7,0,376.4v56.2
	c0,30.4,24.7,55.2,55.2,55.2H264c30.4,0,55.2-24.7,55.2-55.2v-56.2C319.2,321.7,291.5,273.3,249.4,244.5z"/>
</svg>
