<svg viewBox="-45 0 480 480" xmlns="http://www.w3.org/2000/svg"><path d="m194.988281 120c0-55.621094-79.132812-55.039062-96-8-13.449219 37.5 13.773438 69.949219 35.195313 96l60.804687 64 56-64c21.417969-26.050781 53.449219-58.5 40-96-16.867187-47.039062-96-47.621094-96 8zm0 0" fill="#e65d52"/><path d="m130.988281 480v-136c-2.109375-8.175781-4.78125-16.195312-8-24-28.015625-40.246094-32.296875-77.160156-48-72-11.097656 3.648438-8 24-8 24l3.03125 31.550781-11.03125-39.550781-32-56c-6.25-8.242188-16-16-24-8-6.722656 6.722656 0 24 0 24s23.832031 76.027344 40 96c9.859375 13.960938 20.542969 27.316406 32 40v120zm0 0" fill="#ffd7a8"/><path d="m314.988281 480v-120c11.453125-12.683594 22.140625-26.039062 32-40 16.167969-19.972656 40-96 40-96s6.722657-17.277344 0-24c-8-8-17.75-.242188-24 8l-32 56-11.035156 39.550781 3.035156-31.550781s3.097657-20.351562-8-24c-15.707031-5.160156-19.984375 31.753906-48 72-3.21875 7.804688-5.894531 15.824219-8 24v136zm0 0" fill="#ffd7a8"/><g fill="#bcbcbc"><path d="m186.988281 0h16v24h-16zm0 0"/><path d="m64.878906 57.207031 11.308594-11.3125 16.976562 16.96875-11.308593 11.3125zm0 0"/><path d="m296.808594 62.863281 16.972656-16.972656 11.3125 11.316406-16.972656 16.972657zm0 0"/><path d="m120.246094 16.460938 14.78125-6.125 9.1875 22.171874-14.78125 6.125zm0 0"/><path d="m29.324219 116.039062 6.125-14.78125 22.171875 9.183594-6.125 14.78125zm0 0"/><path d="m332.355469 110.441406 22.171875-9.183594 6.125 14.78125-22.171875 9.183594zm0 0"/><path d="m245.761719 32.507812 9.1875-22.171874 14.78125 6.125-9.1875 22.171874zm0 0"/></g></svg>