<?xml version="1.0" encoding="utf-8"?>
<!-- Generator: Adobe Illustrator 21.0.0, SVG Export Plug-In . SVG Version: 6.00 Build 0)  -->
<svg version="1.1" id="Capa_1" xmlns="http://www.w3.org/2000/svg" xmlns:xlink="http://www.w3.org/1999/xlink" x="0px" y="0px"
	 viewBox="0 0 512 512" style="enable-background:new 0 0 512 512;" xml:space="preserve">
<style type="text/css">
	.st0{fill:url(#SVGID_1_);}
	.st1{fill:url(#SVGID_2_);}
</style>
<g>
	<linearGradient id="SVGID_1_" gradientUnits="userSpaceOnUse" x1="99.6527" y1="132.061" x2="504.956" y2="132.061">
		<stop  offset="0" style="stop-color:#00EFD1"/>
		<stop  offset="1" style="stop-color:#203864"/>
	</linearGradient>
	<path class="st0" d="M302.1,252.3c-9,0-17.4-4.4-22.5-11.7c-3.2-4.6-4.9-10-4.9-15.5c0-9,4.4-17.3,11.7-22.5l63.7-43.1l-121.9,4.4
		L140,241.9c-4.4,3.9-10.1,6.1-16,6.1c-7,0-13.6-3-18.2-8.2c-4.3-4.9-6.4-11.1-6-17.6c0.4-6.5,3.3-12.4,8.2-16.7l115.7-102l167-50
		l47.3-41.7L505,62.7l-94.6,115.9l-92.6,68.9C313.1,250.6,307.7,252.3,302.1,252.3z"/>
	<linearGradient id="SVGID_2_" gradientUnits="userSpaceOnUse" x1="7.042" y1="379.938" x2="412.3453" y2="379.938">
		<stop  offset="0" style="stop-color:#00EFD1"/>
		<stop  offset="1" style="stop-color:#203864"/>
	</linearGradient>
	<path class="st1" d="M7,449.3l94.6-115.9l92.6-68.9c4.6-3.2,10-4.9,15.6-4.9c9,0,17.4,4.4,22.5,11.7c3.2,4.6,4.9,10,4.9,15.5
		c0,9-4.4,17.3-11.7,22.5l-63.7,43.1l121.9-4.4l88.4-77.9c4.4-3.9,10.1-6.1,16-6.1c7,0,13.6,3,18.2,8.2c4.3,4.9,6.4,11.1,6,17.6
		c-0.4,6.5-3.3,12.4-8.2,16.7l-115.7,102l-167,50l-47.3,41.7L7,449.3z"/>
</g>
<path d="M74,507.5c2.3,0,4.7-0.8,6.5-2.5l44.8-39.5l164.9-49.3c1.4-0.4,2.6-1.1,3.7-2l115.4-101.7c6.4-5.7,10.3-13.5,10.8-22.1
	c0.5-8.6-2.3-16.8-8-23.3c-5.7-6.4-13.5-10.3-22.1-10.8c-8.6-0.5-16.8,2.3-23.3,8l-86.3,76.1l-91.5,3.3l40.9-27.6c0,0,0.1,0,0.1-0.1
	c9.5-6.6,15.1-17.4,15.1-28.9c0-7.2-2.2-14.1-6.3-20c-11-15.9-33-19.9-49-8.9c-0.1,0.1-0.2,0.1-0.3,0.2L97.1,327
	c-0.7,0.5-1.2,1-1.8,1.7L2.2,442.7c-1.7,2.1-2.5,4.7-2.2,7.4c0.3,2.7,1.7,5.1,3.8,6.7l64.2,48.7C69.8,506.8,71.9,507.5,74,507.5z
	 M109.9,342.1l91.3-67.9c7-4.7,16.6-3,21.4,4c1.8,2.6,2.8,5.6,2.8,8.8c0,5.1-2.5,9.8-6.6,12.7l-69.3,46.9c-3.6,2.5-5.2,7-3.9,11.2
	c1.4,4.2,5.3,7,9.7,6.8l129.4-4.7c2.3-0.1,4.5-1,6.2-2.5l89-78.4c2.5-2.2,5.7-3.3,9-3.1c3.3,0.2,6.3,1.7,8.5,4.2
	c2.2,2.5,3.3,5.7,3.1,9c-0.2,3.3-1.7,6.3-4.2,8.5L282.5,397.9l-164.9,49.3c-1.4,0.4-2.6,1.1-3.7,2l-40.4,35.6l-21.2-16.1l26.1-32.1
	c3.4-4.2,2.8-10.4-1.4-13.9c-4.2-3.4-10.4-2.8-13.9,1.4l-26.6,32.6L24,447.3L109.9,342.1z"/>
<path d="M508.1,55.2L443.9,6.5c-3.7-2.8-9-2.6-12.5,0.5l-44.8,39.5L221.7,95.8c-1.4,0.4-2.6,1.1-3.7,2.1L102.7,199.5
	c-6.4,5.7-10.3,13.5-10.8,22.1c-0.5,8.6,2.3,16.8,8,23.3c5.7,6.4,13.5,10.3,22.1,10.8c8.6,0.5,16.8-2.3,23.3-8l86.3-76.1l91.5-3.3
	L282.2,196c0,0-0.1,0-0.1,0.1c-9.5,6.6-15.1,17.4-15.1,28.9c0,7.2,2.2,14.1,6.3,20c6.8,9.8,17.8,15.1,29,15.1c6.9,0,13.9-2,20-6.2
	c0.1-0.1,0.2-0.1,0.3-0.2l92.4-68.7c0.7-0.5,1.2-1,1.8-1.7l93.2-114.1c1.7-2.1,2.5-4.7,2.2-7.4C511.6,59.2,510.2,56.8,508.1,55.2z
	 M402.1,169.9l-91.3,67.9c-7,4.7-16.6,3-21.4-4c-1.8-2.6-2.8-5.6-2.8-8.8c0-5.1,2.5-9.8,6.6-12.7l69.3-46.9c3.6-2.5,5.2-7,3.9-11.2
	c-1.4-4.2-5.3-7-9.7-6.8l-129.4,4.7c-2.3,0.1-4.5,1-6.2,2.5l-89,78.4c-2.5,2.2-5.7,3.3-9,3.1c-3.3-0.2-6.3-1.7-8.5-4.2
	c-2.2-2.5-3.3-5.7-3.1-9c0.2-3.3,1.7-6.3,4.2-8.5l113.8-100.3l164.9-49.3c1.4-0.4,2.6-1.1,3.7-2l40.4-35.6L488,64.7L402.1,169.9z"/>
<path d="M90.5,416.2c12.7,0,12.7-19.7,0-19.7C77.8,396.5,77.8,416.2,90.5,416.2z"/>
</svg>
