<?xml version="1.0" encoding="utf-8"?>
<!-- Generator: Adobe Illustrator 21.0.0, SVG Export Plug-In . SVG Version: 6.00 Build 0)  -->
<svg version="1.1" id="Capa_1" xmlns="http://www.w3.org/2000/svg" xmlns:xlink="http://www.w3.org/1999/xlink" x="0px" y="0px"
	 viewBox="0 0 512 512" style="enable-background:new 0 0 512 512;" xml:space="preserve">
<style type="text/css">
	.st0{fill:#7F7F7F;}
</style>
<g>
	<g>
		<path class="st0" d="M481,293c0-16.5-13.5-30-30-30c16.5,0,30-13.5,30-30s-13.5-30-30-30H328c18.3-54.9,18-72.4,18-106
			c0-25-20.5-45-45-45h-9c-5.7,0-12.9,4.5-14.4,11.4c-14.8,57.8-38,124.1-96.6,137.5V418l51.9,17.2c15.3,5.1,31.2,7.8,47.4,7.8H421
			c16.6,0,30-13.4,30-30c0-16.6-13.4-30-30-30h30c16.5,0,30-13.5,30-30s-13.5-30-30-30C467.5,323,481,309.5,481,293z"/>
	</g>
</g>
<g>
	<g>
		<path class="st0" d="M106,173H46c-8.3,0-15,6.7-15,15v270c0,8.3,6.7,15,15,15h60c24.8,0,45-20.2,45-45V218
			C151,193.2,130.8,173,106,173z M106,413c-8.3,0-15-6.7-15-15c0-8.3,6.7-15,15-15s15,6.7,15,15C121,406.3,114.3,413,106,413z"/>
	</g>
</g>
</svg>
