<svg id="Calque_1" data-name="Calque 1" xmlns="http://www.w3.org/2000/svg" xmlns:xlink="http://www.w3.org/1999/xlink" viewBox="0 0 1278.63 352.54"><defs><style>.cls-1{fill:url(#Dégradé_sans_nom_28);}.cls-2{fill:url(#Dégradé_sans_nom_28-2);}.cls-3{fill:url(#Dégradé_sans_nom_28-3);}.cls-4{fill:url(#Dégradé_sans_nom_28-4);}.cls-5{fill:url(#Dégradé_sans_nom_28-5);}</style><linearGradient id="Dégradé_sans_nom_28" x1="-42.12" y1="282.76" x2="1321.7" y2="-504.64" gradientUnits="userSpaceOnUse"><stop offset="0" stop-color="#071d50"/><stop offset="0.68" stop-color="#1c4179"/><stop offset="1" stop-color="#4085b6"/></linearGradient><linearGradient id="Dégradé_sans_nom_28-2" x1="33.78" y1="242.88" x2="1142.31" y2="-397.13" xlink:href="#Dégradé_sans_nom_28"/><linearGradient id="Dégradé_sans_nom_28-3" x1="-225.65" y1="568.75" x2="1811.83" y2="-607.59" xlink:href="#Dégradé_sans_nom_28"/><linearGradient id="Dégradé_sans_nom_28-4" x1="15.46" y1="1094.98" x2="1253.03" y2="380.47" xlink:href="#Dégradé_sans_nom_28"/><linearGradient id="Dégradé_sans_nom_28-5" x1="48.98" y1="570.85" x2="1163.45" y2="-72.59" xlink:href="#Dégradé_sans_nom_28"/></defs><title>Logo-LA3-17-01</title><polygon class="cls-1" points="237.86 352.43 284.4 352.42 284.4 145.08 237.87 145.08 237.87 302.64 234.56 302.64 62.04 302.41 62.04 0.34 0 0.26 0 352.4 233.09 352.35 237.86 352.43"/><circle class="cls-2" cx="261.14" cy="111.61" r="23.31"/><polygon class="cls-3" points="309.63 352.54 309.63 88.45 355.11 88.43 398.74 208.28 398.74 88.45 445.44 88.45 445.44 352.54 398.74 352.54 356.33 228.31 356.33 352.54 309.63 352.54"/><path class="cls-4" d="M908.06,370.53H861V636.79h47.08v-135l49.89,135,138.41,0V408.43h40.45a77.73,77.73,0,0,0-10.61,39c0,41.34,33.43,74.94,74.34,76.7a34.11,34.11,0,1,1-34.11,34.11c0-.07,0-.13,0-.2h-42.8c0,.07,0,.13,0,.2a76.9,76.9,0,1,0,76.9-76.9c-17.46-1.5-31.55-16.07-31.55-33.91a34.11,34.11,0,0,1,68.21-.46H1280a76.9,76.9,0,0,0-76.9-76.44l-193.17.1v37.8h39.35V599.09H994.35l-36.06-99.3,0-.07a66.58,66.58,0,0,0-22.63-129.19Zm.55,116.18h-.55V390.32h.55a48.2,48.2,0,1,1,0,96.4Z" transform="translate(-1.37 -284.46)"/><polygon class="cls-5" points="580.98 294.04 549.95 210.09 594.24 88.53 544.67 88.04 515.31 168.71 515.38 88.41 468.83 88.41 468.83 352.5 515.38 352.5 515.38 306.55 515.38 304.36 524.86 278.44 552.08 352.16 578.79 352.15 580.84 352.15 621.59 352.14 700.39 158.15 748.84 277.27 685.64 277.27 685.64 327.18 769.15 327.18 779.27 352.06 843.55 352.14 700.39 0 580.98 294.04"/></svg>