<?xml version="1.0" encoding="utf-8"?>
<!-- Generator: Adobe Illustrator 21.0.0, SVG Export Plug-In . SVG Version: 6.00 Build 0)  -->
<svg version="1.1" xmlns="http://www.w3.org/2000/svg" xmlns:xlink="http://www.w3.org/1999/xlink" x="0px" y="0px"
	 viewBox="0 0 1000 1000" style="enable-background:new 0 0 1000 1000;" xml:space="preserve">
<style type="text/css">
	.st0{fill:url(#SVGID_1_);stroke:#010119;stroke-width:54;stroke-miterlimit:10;}
	.st1{fill:#FFFFFF;stroke:#050505;stroke-width:35;stroke-miterlimit:10;}
	.st2{fill:#010119;}
	.st3{font-family:'TimesNewRomanPS-BoldMT';}
	.st4{font-size:698.2257px;}
	.st5{fill:none;}
</style>
<g id="Calque_3">
	<linearGradient id="SVGID_1_" gradientUnits="userSpaceOnUse" x1="62.3744" y1="940.6255" x2="936.6255" y2="66.3744">
		<stop  offset="0" style="stop-color:#CCE0F4"/>
		<stop  offset="5.712876e-02" style="stop-color:#C3DCF2"/>
		<stop  offset="0.1521" style="stop-color:#A9D2EE"/>
		<stop  offset="0.2733" style="stop-color:#80C2E7"/>
		<stop  offset="0.4145" style="stop-color:#47ACDE"/>
		<stop  offset="0.4751" style="stop-color:#2CA1D9"/>
		<stop  offset="0.6669" style="stop-color:#1E9CD7"/>
		<stop  offset="0.9944" style="stop-color:#203864"/>
	</linearGradient>
	<path class="st0" d="M851.2,976H147.8C81.1,976,27,921.9,27,855.2V151.8C27,85.1,81.1,31,147.8,31h703.4
		C917.9,31,972,85.1,972,151.8v703.4C972,921.9,917.9,976,851.2,976z"/>
	<path class="st1" d="M501,54.7"/>
</g>
<g id="Calque_1">
	<text transform="matrix(1 0 0 1 88.4927 730.5039)" class="st2 st3 st4">L</text>
	<text transform="matrix(1 0 0 1 400.0293 730.8115)" class="st2 st3 st4">A</text>
	<path d="M512.1,711.6"/>
	<line x1="526.9" y1="538.3" x2="473.6" y2="658.3"/>
	<polyline class="st5" points="691.3,314.6 564.7,598.3 512.1,716.1 526.9,597.6 	"/>
	<polyline class="st2" points="512.1,716.1 563.9,597.6 526.9,585.7 	"/>
	<polyline class="st2" points="574.9,575.4 627.4,457.7 627.6,370.9 500.2,637.5 	"/>
	<g id="Calque_2">
	</g>
</g>
</svg>
