<?xml version="1.0" encoding="utf-8"?>
<!-- Generator: Adobe Illustrator 21.0.0, SVG Export Plug-In . SVG Version: 6.00 Build 0)  -->
<svg version="1.1" id="Calque_1" xmlns="http://www.w3.org/2000/svg" xmlns:xlink="http://www.w3.org/1999/xlink" x="0px" y="0px"
	 viewBox="0 0 512 512" style="enable-background:new 0 0 512 512;" xml:space="preserve">
<path d="M383.6,32.1c-52.6,0-95.3,42.8-95.3,95.3c0,52.6,42.8,95.3,95.3,95.3s95.3-42.8,95.3-95.3C478.9,74.9,436.2,32.1,383.6,32.1
	z"/>
<path d="M380.8,355.9V252.8c-67.8-1.5-122.5-57.1-122.5-125.3c0-20,4.7-38.9,13.1-55.7c-15.5-5-31.8-7.5-48.4-7.5
	c-87,0-157.8,70.8-157.8,157.8v133.8C46.5,362.2,33,379.9,33,400.6c0,26,21.1,47.1,47.1,47.1h285.6c26,0,47.1-21.1,47.1-47.1
	C412.9,379.9,399.4,362.2,380.8,355.9z"/>
<path d="M222.9,512c27,0,50.9-13.6,65.2-34.3H157.7C172.1,498.4,195.9,512,222.9,512z"/>
<path d="M269.6,40.1C266.1,17.4,246.5,0,222.9,0c-23.6,0-43.2,17.4-46.6,40.1c14.9-3.8,30.5-5.9,46.6-5.9
	C238.9,34.3,254.5,36.2,269.6,40.1z"/>
</svg>
