<svg version="1.1" id="Calque_1" xmlns="http://www.w3.org/2000/svg" xmlns:xlink="http://www.w3.org/1999/xlink" x="0px" y="0px"
viewBox="0 0 512 512" style="enable-background:new 0 0 512 512;" xml:space="preserve">
<style type="text/css">
.st0{fill:none;stroke:#000000;stroke-width:28;stroke-miterlimit:10;}
.st1{fill:none;}
</style>
<g id="Capa_1">
<circle class="st0" cx="256.7" cy="255.8" r="240"/>
<g>
	<path class="st1" d="M417.3,436.3c0-84-72-152.3-160.6-152.3S96,352.2,96,436.3h-7.8c44.1,41.2,103.3,66.3,168.4,66.3
	s124.4-25.1,168.4-66.3H417.3z"/>
	<path class="st1" d="M122,308.7c20.7-19.6,45.5-34.1,72.4-43c-28.8-18.8-47.8-50.4-47.8-86c0-57.5,49.4-104.4,110-104.4
	s110,46.9,110,104.4c0,35.6-18.9,67.2-47.8,86c26.9,8.8,51.7,23.4,72.4,43c30.4,28.8,49.4,65.8,54.3,105.8
	c36.1-43,57.9-98.2,57.9-158.7C503.5,119.4,392.9,9,256.7,9S9.8,119.4,9.8,255.8c0,60.5,21.8,115.9,57.9,158.7
	C72.7,374.5,91.6,337.5,122,308.7z"/>
	<path class="st1" d="M256.7,255.8c44.2,0,80.3-34.1,80.3-76.1s-36.1-76.1-80.3-76.1s-80.3,34.1-80.3,76.1S212.4,255.8,256.7,255.8
	z"/>
	<path d="M256.7,283.9c88.6,0,160.6,68.3,160.6,152.3h7.8c7.3-6.9,14.2-14.2,20.7-21.8c-5-40-23.9-77-54.3-105.8
	c-20.7-19.6-45.5-34.1-72.4-43c28.8-18.8,47.8-50.4,47.8-86c0-57.5-49.4-104.4-110-104.4s-110,46.9-110,104.4
	c0,35.6,18.9,67.2,47.8,86c-26.9,8.8-51.7,23.4-72.4,43c-30.4,28.8-49.4,65.8-54.3,105.8c6.4,7.6,13.3,14.9,20.7,21.8h7.8
	C96,352.2,168,283.9,256.7,283.9z M176.3,179.7c0-41.9,36.1-76.1,80.3-76.1c44.2,0,80.3,34.1,80.3,76.1s-36.1,76.1-80.3,76.1
	S176.3,221.7,176.3,179.7z"/>
</g>
</g>
</svg>