<?xml version="1.0" encoding="utf-8"?>
<!-- Generator: Adobe Illustrator 21.0.0, SVG Export Plug-In . SVG Version: 6.00 Build 0)  -->
<svg version="1.1" id="Calque_1" xmlns="http://www.w3.org/2000/svg" xmlns:xlink="http://www.w3.org/1999/xlink" x="0px" y="0px"
	 viewBox="0 0 480 480" style="enable-background:new 0 0 480 480;" xml:space="preserve">
<style type="text/css">
	.st0{fill:none;stroke:#000000;stroke-width:7;stroke-miterlimit:10;}
</style>
<path d="M63.2,281.4L6.9,343.8c-3.9,4.3-4.5,10.8-1.7,16c0.9,1.3,1.7,2.5,2.8,3.4c3.2,2.9,7.7,4.1,11.9,3.4l81.9-16.1L63.2,281.4z"
	/>
<path d="M479.8,231.4c-1.2-5-5-9-10.1-10.5L18.7,100.6c-5.4-1.5-11,0.5-14.3,4.7s-3.7,10.2-1,15.1l59.9,106.2l320.8,11.8l-292,39.2
	l100.3,177.9c0.9,1.3,1.7,2.5,2.8,3.6c1.9,1.7,4.3,2.8,6.7,3.2c4.1,0.9,8.2-0.2,11.3-2.8L475.4,245
	C479.3,241.6,481,236.4,479.8,231.4z"/>
<path class="st0" d="M-27.6,196.9"/>
</svg>
