<?xml version="1.0" encoding="utf-8"?>
<!-- Generator: Adobe Illustrator 21.0.0, SVG Export Plug-In . SVG Version: 6.00 Build 0)  -->
<svg version="1.1" id="Capa_1" xmlns="http://www.w3.org/2000/svg" xmlns:xlink="http://www.w3.org/1999/xlink" x="0px" y="0px"
	 viewBox="0 0 479.6 479.6" style="enable-background:new 0 0 479.6 479.6;" xml:space="preserve">
<style type="text/css">
	.st0{fill:none;stroke:#020202;stroke-width:26;stroke-miterlimit:10;}
</style>
<circle class="st0" cx="239.6" cy="239.8" r="227.2"/>
<path d="M180.9,311.1v54.2c0,3.8,2.5,7.1,6.1,8.4c1,0.3,1.8,0.5,2.8,0.5c2.8,0,5.5-1.3,7.2-3.6l32.3-43.2L180.9,311.1z"/>
<path d="M358.9,107.1c-2.8-1.9-6.3-2.2-9.3-0.7L81.4,243.7c-3.2,1.6-5.1,5-4.8,8.5c0.3,3.5,2.7,6.5,6,7.6l74.5,25L316,151.7
	l-122.9,145L318,338.6c1,0.3,1.9,0.5,2.9,0.5c1.6,0,3.3-0.5,4.6-1.3c2.3-1.3,3.8-3.7,4.2-6.2l32.9-216.1
	C363.1,112.2,361.7,109,358.9,107.1z"/>
</svg>
