<?xml version="1.0" encoding="utf-8"?>
<!-- Generator: Adobe Illustrator 21.0.0, SVG Export Plug-In . SVG Version: 6.00 Build 0)  -->
<svg version="1.1" id="Capa_1" xmlns="http://www.w3.org/2000/svg" xmlns:xlink="http://www.w3.org/1999/xlink" x="0px" y="0px"
	 viewBox="0 0 479.6 479.6" style="enable-background:new 0 0 479.6 479.6;" xml:space="preserve">
<style type="text/css">
	.st0{fill:none;stroke:#020202;stroke-width:26;stroke-miterlimit:10;}
	.st1{fill:none;stroke:#000000;stroke-width:7;stroke-miterlimit:10;}
	.st2{fill:none;stroke:#000000;stroke-width:12;stroke-miterlimit:10;}
</style>
<circle class="st0" cx="239.6" cy="239.8" r="227.2"/>
<path d="M181.3,297.6l-13.1,52.6c-0.9,3.6,0.7,7.5,3.9,9.6c0.9,0.5,1.7,0.9,2.6,1.1c2.7,0.7,5.6,0,7.8-1.7l41.8-34L181.3,297.6z"/>
<path d="M403.4,142.7c-2.2-2.5-5.6-3.6-8.9-2.9l-293.4,68.3c-3.5,0.8-6.1,3.6-6.7,7s1,6.9,4,8.9l66.3,42.3L351,175.7L196.6,286.6
	l111.1,70.9c0.9,0.5,1.7,0.9,2.7,1.2c1.6,0.4,3.3,0.3,4.8-0.2c2.6-0.7,4.6-2.6,5.6-5L405,151.8C406.2,148.7,405.6,145.2,403.4,142.7
	z"/>
<path class="st1" d="M104,277"/>
<path class="st2" d="M142,284.5c-15,7.4-32.9,18.3-50.4,34.7c-5.8,5.4-10.9,10.9-15.4,16.2"/>
<path class="st2" d="M155,305c-7.3,5.3-15.8,12.6-24.1,22.4c-4.8,5.7-8.7,11.3-11.9,16.3"/>
<path class="st1" d="M592,398"/>
</svg>
