<?xml version="1.0" encoding="iso-8859-1"?>
<!-- Generator: Adobe Illustrator 19.0.0, SVG Export Plug-In . SVG Version: 6.00 Build 0)  -->
<svg version="1.1" id="Layer_1" xmlns="http://www.w3.org/2000/svg" xmlns:xlink="http://www.w3.org/1999/xlink" x="0px" y="0px"
	 viewBox="0 0 512 512" style="enable-background:new 0 0 512 512;" xml:space="preserve">
<path style="fill:#E4D1F3;" d="M373.106,8.17h-32.681L384,465.382l32.681-5.127V51.745C416.681,27.68,397.171,8.17,373.106,8.17z"/>
<path style="fill:#F89890;" d="M128,51.745C128,27.68,75.81,8.17,51.745,8.17L40.851,46.298l10.894,38.128H128V51.745z"/>
<path style="fill:#FFC5BF;" d="M8.17,51.745v32.681h43.574V8.17C27.68,8.17,8.17,27.68,8.17,51.745z"/>
<path style="fill:#F1E8F9;" d="M340.426,8.17H51.745c24.065,0,43.574,19.509,43.574,43.574v408.511
	c0,24.065,19.509,43.574,43.574,43.574L384,465.382V51.745C384,27.68,364.491,8.17,340.426,8.17z"/>
<path style="fill:#FFC5BF;" d="M471.149,427.574l-43.574,76.255h32.681c24.065,0,43.574-19.509,43.574-43.574v-32.681H471.149z"/>
<path style="fill:#FFD8D4;" d="M471.149,460.255v-32.681H182.468v32.681c0,24.065-19.509,43.574-43.574,43.574h288.681
	C451.64,503.83,471.149,484.32,471.149,460.255z"/>
<path style="fill:#9E52B6;" d="M256,49.021c-52.56,0-95.319,42.76-95.319,95.319S203.44,239.66,256,239.66
	c19.213,0,37.739-5.698,53.576-16.479c3.73-2.539,4.695-7.621,2.156-11.351c-2.54-3.73-7.621-4.695-11.351-2.156
	c-6.226,4.239-12.958,7.516-20.013,9.802c8.214-16.598,12.817-41.458,13.628-66.964h40.555
	c-1.333,12.971-5.829,25.356-13.218,36.209c-2.539,3.73-1.574,8.812,2.156,11.351c3.731,2.54,8.813,1.574,11.351-2.156
	c10.78-15.837,16.479-34.363,16.479-53.576C351.319,91.781,308.56,49.021,256,49.021z M334.557,136.17h-40.561
	c-0.81-25.493-5.41-50.343-13.616-66.94C309.54,78.718,331.311,104.73,334.557,136.17z M256,65.362
	c2.644,0,8.41,5.329,13.457,20.012c4.713,13.711,7.567,31.512,8.196,50.797h-43.306c0.63-19.286,3.484-37.087,8.196-50.797
	C247.59,70.691,253.356,65.362,256,65.362z M231.62,69.23c-8.206,16.598-12.805,41.446-13.616,66.94h-40.561
	C180.689,104.73,202.46,78.718,231.62,69.23z M177.443,152.511h40.561c0.81,25.493,5.41,50.343,13.616,66.94
	C202.46,209.962,180.689,183.951,177.443,152.511z M269.457,203.308c-5.047,14.682-10.813,20.012-13.457,20.012
	s-8.41-5.329-13.457-20.012c-4.713-13.711-7.567-31.512-8.196-50.797h43.306C277.024,171.797,274.169,189.598,269.457,203.308z"/>
<path d="M367.66,370.383H272.34c-4.512,0-8.17,3.658-8.17,8.17c0,4.512,3.658,8.17,8.17,8.17h95.319c4.512,0,8.17-3.658,8.17-8.17
	C375.83,374.041,372.172,370.383,367.66,370.383z"/>
<path d="M239.66,370.383H144.34c-4.512,0-8.17,3.658-8.17,8.17c0,4.512,3.658,8.17,8.17,8.17h95.319c4.512,0,8.17-3.658,8.17-8.17
	C247.83,374.041,244.172,370.383,239.66,370.383z"/>
<path d="M367.66,321.362H272.34c-4.512,0-8.17,3.658-8.17,8.17c0,4.512,3.658,8.17,8.17,8.17h95.319c4.512,0,8.17-3.658,8.17-8.17
	C375.83,325.02,372.172,321.362,367.66,321.362z"/>
<path d="M239.66,321.362H144.34c-4.512,0-8.17,3.658-8.17,8.17c0,4.512,3.658,8.17,8.17,8.17h95.319c4.512,0,8.17-3.658,8.17-8.17
	C247.83,325.02,244.172,321.362,239.66,321.362z"/>
<path d="M367.66,272.34H272.34c-4.512,0-8.17,3.658-8.17,8.17c0,4.512,3.658,8.17,8.17,8.17h95.319c4.512,0,8.17-3.658,8.17-8.17
	C375.83,275.999,372.172,272.34,367.66,272.34z"/>
<path d="M239.66,272.34H144.34c-4.512,0-8.17,3.658-8.17,8.17c0,4.512,3.658,8.17,8.17,8.17h95.319c4.512,0,8.17-3.658,8.17-8.17
	C247.83,275.999,244.172,272.34,239.66,272.34z"/>
<path d="M503.83,419.404H182.468c-4.512,0-8.17,3.658-8.17,8.17v32.681c0,19.521-15.883,35.404-35.404,35.404
	s-35.404-15.883-35.404-35.404V51.745c0-13.687-5.351-26.14-14.059-35.404h283.676c19.521,0,35.404,15.883,35.404,35.404v343.149
	c0,4.512,3.658,8.17,8.17,8.17c4.512,0,8.17-3.658,8.17-8.17V51.745C424.851,23.213,401.638,0,373.106,0H51.745
	C23.213,0,0,23.213,0,51.745v32.681c0,4.512,3.658,8.17,8.17,8.17h54.468c4.512,0,8.17-3.658,8.17-8.17s-3.658-8.17-8.17-8.17H16.34
	V51.745c0-19.521,15.883-35.404,35.404-35.404s35.404,15.883,35.404,35.404v408.511c0,28.531,23.213,51.745,51.745,51.745h321.362
	C488.787,512,512,488.787,512,460.255v-32.681C512,423.062,508.342,419.404,503.83,419.404z M495.66,460.255
	c0,19.521-15.883,35.404-35.404,35.404H176.598c8.703-9.263,14.041-21.722,14.041-35.404v-24.511H495.66V460.255z"/>
<g>
</g>
<g>
</g>
<g>
</g>
<g>
</g>
<g>
</g>
<g>
</g>
<g>
</g>
<g>
</g>
<g>
</g>
<g>
</g>
<g>
</g>
<g>
</g>
<g>
</g>
<g>
</g>
<g>
</g>
</svg>
