<svg viewBox="0 0 512 512" xmlns="http://www.w3.org/2000/svg"><path d="m482 454h-320c-11.046875 0-20-8.953125-20-20v-404c0-11.046875 8.953125-20 20-20h320c11.046875 0 20 8.953125 20 20v404c0 11.046875-8.953125 20-20 20zm0 0" fill="#d29976"/><path d="m482 10h-320c-11.046875 0-20 8.953125-20 20v34c0 21.265625 15.558594 39.335938 36.589844 42.488281l113.429687 17.015625h59.960938l113.429687-17.015625c21.03125-3.152343 36.589844-21.222656 36.589844-42.488281v-34c0-11.046875-8.953125-20-20-20zm0 0" fill="#dca98b"/><path d="m354 96c0 17.671875-14.328125 32-32 32s-32-14.328125-32-32 14.328125-32 32-32 32 14.328125 32 32zm0 0" fill="#f6838d"/><path d="m354 216.992188c0 17.671874-14.328125 32-32 32s-32-14.328126-32-32c0-17.671876 14.328125-32 32-32s32 14.328124 32 32zm0 0" fill="#f6838d"/><path d="m232 502h-212c-5.523438 0-10-4.476562-10-10v-294c0-5.523438 4.476562-10 10-10h212c5.523438 0 10 4.476562 10 10v294c0 5.523438-4.476562 10-10 10zm0 0" fill="#fff"/><path d="m194 303c0 37.554688-30.445312 68-68 68s-68-30.445312-68-68 30.445312-68 68-68 68 30.445312 68 68zm0 0" fill="#60a4ff"/><path d="m126 371c17.289062 0 33.066406-6.457031 45.066406-17.082031-5.390625-19.839844-23.519531-34.433594-45.066406-34.433594s-39.675781 14.59375-45.066406 34.433594c12 10.628906 27.777344 17.082031 45.066406 17.082031zm0 0" fill="#91def5"/><path d="m147.324219 292.828125v5.332031c0 11.777344-9.546875 21.324219-21.324219 21.324219s-21.324219-9.546875-21.324219-21.324219v-5.332031c0-11.777344 9.546875-21.328125 21.324219-21.328125s21.324219 9.550781 21.324219 21.328125zm0 0" fill="#ffddcf"/><path d="m482 0h-320c-16.542969 0-30 13.457031-30 30v148h-112c-11.027344 0-20 8.972656-20 20v294c0 11.027344 8.972656 20 20 20h212c11.027344 0 20-8.972656 20-20v-294c0-11.027344-8.972656-20-20-20h-80v-72.558594c7.222656 5.746094 15.871094 9.550782 25.105469 10.9375l102.894531 15.433594v85.179688c0 23.160156 18.839844 42 42 42s42-18.839844 42-42v-85.179688l102.894531-15.433594c9.234375-1.386718 17.882813-5.191406 25.105469-10.9375v328.558594c0 5.515625-4.484375 10-10 10h-160c-5.523438 0-10 4.476562-10 10s4.476562 10 10 10h160c16.542969 0 30-13.457031 30-30v-404c0-16.542969-13.457031-30-30-30zm-249.988281 492s-.003907 0-.011719 0h-212v-294h212zm89.988281-354c8.0625 0 15.597656-2.289062 22-6.242188v49.476563c-6.402344-3.957031-13.9375-6.242187-22-6.242187s-15.597656 2.285156-22 6.242187v-49.476563c6.402344 3.953126 13.9375 6.242188 22 6.242188zm0-20c-12.132812 0-22-9.867188-22-22s9.867188-22 22-22 22 9.867188 22 22-9.867188 22-22 22zm0 120.992188c-12.132812 0-22-9.871094-22-22 0-12.132813 9.867188-22 22-22s22 9.867187 22 22c0 12.128906-9.867188 22-22 22zm141.925781-142.390626-99.925781 14.988282v-15.589844c0-23.160156-18.839844-42-42-42s-42 18.839844-42 42v15.589844l-99.925781-14.988282c-16.265625-2.441406-28.074219-16.152343-28.074219-32.601562v-34c0-5.515625 4.484375-10 10-10h320c5.515625 0 10 4.484375 10 10v34c0 16.449219-11.808594 30.160156-28.074219 32.601562zm0 0"/><path d="m322 86c-2.628906 0-5.210938 1.070312-7.070312 2.929688-1.859376 1.859374-2.929688 4.441406-2.929688 7.070312s1.070312 5.210938 2.929688 7.070312c1.859374 1.859376 4.441406 2.929688 7.070312 2.929688s5.210938-1.070312 7.070312-2.929688c1.859376-1.859374 2.929688-4.441406 2.929688-7.070312s-1.070312-5.210938-2.929688-7.070312c-1.859374-1.859376-4.441406-2.929688-7.070312-2.929688zm0 0"/><path d="m322 206.988281c-2.628906 0-5.210938 1.070313-7.070312 2.933594-1.859376 1.859375-2.929688 4.4375-2.929688 7.066406 0 2.632813 1.070312 5.210938 2.929688 7.070313 1.859374 1.863281 4.441406 2.929687 7.070312 2.929687s5.210938-1.066406 7.070312-2.929687c1.859376-1.859375 2.929688-4.4375 2.929688-7.070313 0-2.628906-1.070312-5.207031-2.929688-7.066406-1.859374-1.863281-4.441406-2.933594-7.070312-2.933594zm0 0"/><path d="m184 405h-116c-5.523438 0-10 4.476562-10 10s4.476562 10 10 10h116c5.523438 0 10-4.476562 10-10s-4.476562-10-10-10zm0 0"/><path d="m163.144531 445h-74.289062c-5.523438 0-10 4.476562-10 10s4.476562 10 10 10h74.292969c5.523437 0 10-4.476562 10-10s-4.480469-10-10.003907-10zm0 0"/><path d="m126 381c43.011719 0 78-34.992188 78-78 0-43.011719-34.992188-78-78-78s-78 34.992188-78 78c0 43.011719 34.988281 78 78 78zm-33.199219-30.484375c5.972657-12.636719 18.84375-21.03125 33.199219-21.03125s27.226562 8.394531 33.199219 21.03125c-9.414063 6.597656-20.855469 10.484375-33.199219 10.484375s-23.785156-3.886719-33.199219-10.484375zm21.875-52.355469v-5.332031c0-6.246094 5.078125-11.328125 11.324219-11.328125s11.328125 5.082031 11.328125 11.328125v5.332031c0 6.246094-5.082031 11.324219-11.328125 11.324219s-11.324219-5.082031-11.324219-11.324219zm11.324219-53.160156c31.980469 0 58 26.019531 58 58 0 12.144531-3.757812 23.421875-10.164062 32.746094-5.433594-8.511719-13.042969-15.394532-21.945313-19.976563 3.425781-5.023437 5.433594-11.085937 5.433594-17.613281v-5.332031c0-17.269531-14.050781-31.324219-31.324219-31.324219s-31.328125 14.054688-31.328125 31.324219v5.332031c0 6.527344 2.007813 12.59375 5.4375 17.613281-8.902344 4.582031-16.511719 11.464844-21.949219 19.976563-6.402344-9.324219-10.160156-20.601563-10.160156-32.746094 0-31.980469 26.019531-58 58-58zm0 0"/><path d="m282 444c-2.628906 0-5.210938 1.070312-7.070312 2.929688-1.859376 1.859374-2.929688 4.441406-2.929688 7.070312s1.070312 5.210938 2.929688 7.070312c1.859374 1.859376 4.441406 2.929688 7.070312 2.929688s5.210938-1.070312 7.070312-2.929688c1.859376-1.859374 2.929688-4.441406 2.929688-7.070312s-1.070312-5.210938-2.929688-7.070312c-1.859374-1.859376-4.441406-2.929688-7.070312-2.929688zm0 0"/></svg>