<?xml version="1.0" encoding="utf-8"?>
<!-- Generator: Adobe Illustrator 21.0.0, SVG Export Plug-In . SVG Version: 6.00 Build 0)  -->
<svg version="1.1" id="Capa_1" xmlns="http://www.w3.org/2000/svg" xmlns:xlink="http://www.w3.org/1999/xlink" x="0px" y="0px"
	 viewBox="0 0 479.6 479.6" style="enable-background:new 0 0 479.6 479.6;" xml:space="preserve">
<style type="text/css">
	.st0{fill:none;stroke:#020202;stroke-width:26;stroke-miterlimit:10;}
</style>
<g>
	<g>
		<path d="M426.8,303.2c-0.3-2-0.8-4.1-1.5-6c-6.3-17.5-24.2-27.9-42.5-24.8c-6.1,1-11.7-3.2-12.7-9.2l-9.2-59
			c-7.6-49.9-43.6-90.7-92.1-104.4c-4.4-27-29.9-45.3-56.9-40.9c-26.7,4.4-44.9,29.3-41.1,56c-41.8,26.5-63.9,75.3-56.2,124.2
			l9.9,62.7c0.9,6-3.2,11.7-9.2,12.7c-18.4,2.7-32.2,18.1-32.8,36.7c-0.2,20.6,16.3,37.5,36.9,37.7c0.1,0,0.3,0,0.4,0
			c1.9,0,3.9-0.2,5.8-0.4l38.3-6c13.3,23.8,43.4,32.2,67.1,18.9c12.6-7,21.4-19.2,24.3-33.3l140.6-22.1
			C416.1,342.6,430,323.5,426.8,303.2z M216.2,84.5c1.3-0.2,2.6-0.3,3.9-0.3c8.3,0,16.1,4.2,20.7,11.2h-0.6c-4.6-0.1-9.3,0-13.9,0.4
			c-4.9,0.5-9.7,1.2-14.5,2.2c-1,0.2-2.1,0.5-3.1,0.8c-3.9,0.9-7.8,2-11.5,3.3c-0.4,0.1-0.8,0.2-1.1,0.3
			C198.7,93,206.6,86.1,216.2,84.5z M206.7,382.7c-5.3,0-10.4-1.7-14.6-4.8l34.8-5.5C222.2,378.8,214.7,382.7,206.7,382.7z
			 M400.5,315.4c-1.9,3.1-5.1,5.3-8.7,5.8l-149.8,23.6l-72.8,11.5l-47.6,7.5c-3.6,0.6-7.3-0.5-10-2.9c-2.8-2.4-4.4-5.9-4.4-9.6
			c0.5-6.4,5.5-11.5,11.8-12.3c19.6-3.1,33-21.5,29.9-41.1l-9.9-62.7c-6.5-41.4,13.6-82.4,50.3-102.7c0.2-0.1,0.4-0.2,0.6-0.2
			c11.9-6.4,25-10.4,38.5-11.6c4.1-0.4,8.2-0.4,12.3-0.2l2,0.1c4.2,0.3,8.5,0.8,12.6,1.6c0.1,0,0.3,0,0.4,0
			c42.1,9.1,74.1,43.3,80.4,85.9l9.3,59c3.1,19.6,21.5,33,41.1,30c6.3-1.2,12.5,2.1,15,8C402.9,308.4,402.5,312.3,400.5,315.4z"/>
	</g>
</g>
<circle class="st0" cx="239.6" cy="239.8" r="227.2"/>
</svg>
