<?xml version="1.0" encoding="utf-8"?>
<!-- Generator: Adobe Illustrator 21.0.0, SVG Export Plug-In . SVG Version: 6.00 Build 0)  -->
<svg version="1.1" id="Capa_1" xmlns="http://www.w3.org/2000/svg" xmlns:xlink="http://www.w3.org/1999/xlink" x="0px" y="0px"
	 viewBox="0 0 479.6 479.6" style="enable-background:new 0 0 479.6 479.6;" xml:space="preserve">
<style type="text/css">
	.st0{fill:none;stroke:#020202;stroke-width:26;stroke-miterlimit:10;}
</style>
<circle class="st0" cx="239.6" cy="239.8" r="227.2"/>
<g>
	<path d="M338.7,298.3c-5.1-1-8.5-5.9-7.6-11.1l9.5-50.1c8.1-42.4-9.2-85.7-44.4-110.6c4.2-23.1-11.1-45.1-34.1-49.3
		c-22.7-4.1-44.6,10.7-49.2,33.4c-41.3,9.3-73.1,42.3-80.8,84l-10,53.4c-1,5.1-5.9,8.5-11.1,7.6c-15.5-3.1-31.1,5.3-37,20.1
		c-6.1,16.6,2.4,34.9,19,40.9c0.1,0,0.2,0.1,0.3,0.1c0.9,0.3,1.9,0.6,2.8,0.8l237.9,44.1c15.1,0,28.5-10.7,31.4-26
		c0.3-1.7,0.5-3.5,0.5-5.2C365.8,314.6,354.3,301,338.7,298.3z M274.3,115c-3.7-1.5-7.5-2.6-11.3-3.7c-4.1-1-8.2-1.8-12.3-2.3
		c-0.9-0.1-1.8-0.2-2.7-0.3c-3.4-0.4-6.8-0.6-10.2-0.7c-0.3,0-0.7-0.1-1-0.1c4.8-6.8,13.1-10.2,21.3-8.6c1.1,0.2,2.2,0.5,3.3,0.9
		c6.7,2.4,11.8,8,13.5,15L274.3,115z"/>
	<path d="M251.6,351.1c-3.7-1.3-6.9-3.6-9.4-6.7l-24.8-4.6c4.6,22.2,25.9,37,48.4,33.1c11.7-2,22-8.9,28.4-18.9l-24.9-4.6
		C264,352.6,257.6,353.2,251.6,351.1z"/>
</g>
</svg>
