<?xml version="1.0" encoding="utf-8"?>
<!-- Generator: Adobe Illustrator 21.0.0, SVG Export Plug-In . SVG Version: 6.00 Build 0)  -->
<svg version="1.1" id="Calque_1" xmlns="http://www.w3.org/2000/svg" xmlns:xlink="http://www.w3.org/1999/xlink" x="0px" y="0px"
	 viewBox="0 0 1024 1024" style="enable-background:new 0 0 1024 1024;" xml:space="preserve">
<style type="text/css">
	.st0{fill:#FFFFFF;}
	.st1{fill:#203865;}
</style>
<g>
	<path class="st0" d="M512,997c-65.5,0-129-12.8-188.8-38.1c-57.8-24.4-109.6-59.4-154.2-103.9c-44.5-44.5-79.5-96.4-103.9-154.2
		C39.8,641,27,577.5,27,512s12.8-129,38.1-188.8c24.4-57.8,59.4-109.6,103.9-154.2s96.4-79.5,154.2-103.9C383,39.8,446.5,27,512,27
		s129,12.8,188.8,38.1c57.8,24.4,109.6,59.4,154.2,103.9c44.5,44.5,79.5,96.4,103.9,154.2C984.2,383,997,446.5,997,512
		s-12.8,129-38.1,188.8c-24.4,57.8-59.4,109.6-103.9,154.2s-96.4,79.5-154.2,103.9C641,984.2,577.5,997,512,997z"/>
	<path class="st1" d="M512,49c62.5,0,123.2,12.2,180.2,36.4c55.1,23.3,104.6,56.7,147.2,99.2c42.5,42.5,75.9,92.1,99.2,147.2
		C962.8,388.8,975,449.5,975,512s-12.2,123.2-36.4,180.2c-23.3,55.1-56.7,104.6-99.2,147.2c-42.5,42.5-92.1,75.9-147.2,99.2
		C635.2,962.8,574.5,975,512,975s-123.2-12.2-180.2-36.4c-55.1-23.3-104.6-56.7-147.2-99.2c-42.5-42.5-75.9-92.1-99.2-147.2
		C61.2,635.2,49,574.5,49,512s12.2-123.2,36.4-180.2c23.3-55.1,56.7-104.6,99.2-147.2c42.5-42.5,92.1-75.9,147.2-99.2
		C388.8,61.2,449.5,49,512,49 M512,5C232,5,5,232,5,512s227,507,507,507s507-227,507-507S792,5,512,5L512,5z"/>
</g>
<g id="Calque_3">
	<polygon class="st1" points="837,740 651.7,284.2 492.8,675.3 269.3,675.3 269.3,284.3 189,284.3 189,740 549.7,740 651.7,488.9 
		714.4,643.1 632.6,643.1 632.6,707.7 740.7,707.7 753.8,739.9 	"/>
</g>
</svg>
