<?xml version="1.0" encoding="utf-8"?>
<!-- Generator: Adobe Illustrator 21.0.0, SVG Export Plug-In . SVG Version: 6.00 Build 0)  -->
<svg version="1.1" id="Capa_1" xmlns="http://www.w3.org/2000/svg" xmlns:xlink="http://www.w3.org/1999/xlink" x="0px" y="0px"
	 viewBox="0 0 479.6 479.6" style="enable-background:new 0 0 479.6 479.6;" xml:space="preserve">
<style type="text/css">
	.st0{fill:none;stroke:#020202;stroke-width:26;stroke-miterlimit:10;}
</style>
<circle class="st0" cx="239.6" cy="239.8" r="227.2"/>
<g>
	<path d="M385.8,120.4c1.6-7.6-5.8-14.1-13.1-11.3L56.3,229.9c-3.8,1.5-6.3,5.1-6.3,9.2c0,4.1,2.5,7.7,6.3,9.2l88.9,34.3v108.1
		c0,4.6,3.1,8.5,7.6,9.6c4.4,1,9-1,11.1-5.1l36.8-72.9l89.7,66.6c5.5,4,13.3,1.5,15.3-5C389.2,109.1,385.6,121.1,385.8,120.4
		L385.8,120.4z M307.7,155L153.6,264.7l-66.3-25.6L307.7,155z M164.8,280.9l134.3-95.7c-115.6,121.9-109.5,115.5-110,116.2
		c-0.7,1,1.3-2.9-24.3,47.8V280.9z M290.7,364.6L211.8,306l142.7-150.6L290.7,364.6z"/>
</g>
</svg>
