<?xml version="1.0" encoding="utf-8"?>
<!-- Generator: Adobe Illustrator 21.0.0, SVG Export Plug-In . SVG Version: 6.00 Build 0)  -->
<svg version="1.1" id="Calque_1" xmlns="http://www.w3.org/2000/svg" xmlns:xlink="http://www.w3.org/1999/xlink" x="0px" y="0px"
	 viewBox="0 0 512 512" style="enable-background:new 0 0 512 512;" xml:space="preserve">
<path d="M364.9,133c-3.5-5.8-10.4-8.5-16.9-6.7c-6.5,1.8-11,7.7-11,14.4c0,18.3-14.9,33.2-33.2,33.2s-33.2-14.9-33.2-33.2V15
	c0-6.1-3.7-11.5-9.3-13.9c-5.6-2.3-12.1-1-16.3,3.3c-1.7,1.7-41.7,41.9-82.2,102.7c-23.9,35.8-43,71.4-56.7,105.7
	C88.8,256.2,80,297.8,80,336.3C80,433.2,158.8,512,255.7,512c96.9,0,175.7-78.8,175.7-175.7C431.3,274.3,409,205.9,364.9,133z
	 M355.8,332.4c0,8.3-6.7,15-15,15c-8.3,0-15-6.7-15-15v-28.1l-74.7,74.7c-2.8,2.8-6.6,4.4-10.6,4.4c-4,0-7.8-1.6-10.6-4.4L195,344.2
	l-23.5,23.5c-5.9,5.9-15.4,5.9-21.2,0s-5.9-15.4,0-21.2l34.1-34.1c5.9-5.9,15.4-5.9,21.2,0l34.8,34.8l64.1-64.1h-28.1
	c-8.3,0-15-6.7-15-15s6.7-15,15-15h64.3c8.3,0,15,6.7,15,15L355.8,332.4L355.8,332.4z"/>
</svg>
